<svg width="29" height="34" viewBox="0 0 29 34" fill="none" xmlns="http://www.w3.org/2000/svg">
<path d="M25.4763 11.8101L25.7726 11.9722L25.9347 12.2685C26.0348 12.4513 26.1971 12.592 26.3924 12.6646C26.5875 12.7375 26.8024 12.7375 26.9977 12.6646C27.1928 12.592 27.3554 12.4513 27.4552 12.2685L27.6173 11.9722L27.9137 11.8101C28.0965 11.71 28.2372 11.5476 28.31 11.3523C28.3827 11.1573 28.3827 10.9423 28.31 10.747C28.2372 10.5519 28.0965 10.3894 27.9137 10.2895L27.6173 10.1274L27.4552 9.83111C27.3554 9.64825 27.1928 9.50759 26.9977 9.43473C26.8024 9.36209 26.5875 9.36209 26.3924 9.43473C26.1971 9.5076 26.0348 9.64826 25.9347 9.83111L25.7726 10.1274L25.4763 10.2921C25.2937 10.3919 25.153 10.5545 25.0801 10.7496C25.0075 10.9449 25.0075 11.1598 25.0801 11.3551C25.153 11.5502 25.2937 11.7128 25.4763 11.8126V11.8101ZM25.8482 10.9707L26.3203 10.7124C26.3355 10.7039 26.3479 10.6914 26.3565 10.6762L26.6147 10.2035C26.6309 10.1742 26.6618 10.156 26.6954 10.1565C26.7289 10.156 26.7595 10.1742 26.7755 10.2035L27.0337 10.6762C27.0423 10.6912 27.0547 10.7039 27.0699 10.7124L27.5426 10.9707H27.5424C27.5719 10.9868 27.5901 11.0175 27.5901 11.0509C27.5901 11.0846 27.5719 11.1153 27.5424 11.1314L27.0697 11.3897H27.0699C27.0547 11.3982 27.0423 11.4107 27.0337 11.4259L26.7755 11.8979C26.7598 11.9274 26.7289 11.9456 26.6954 11.9456C26.6618 11.9456 26.6309 11.9274 26.6147 11.8979L26.3565 11.4259C26.3482 11.4104 26.3357 11.398 26.3203 11.3897L25.8482 11.1314C25.8183 11.1155 25.7996 11.0844 25.7996 11.0505C25.7996 11.0163 25.8183 10.9852 25.8482 10.9693V10.9707Z" fill="#101828"/>
<path d="M1.04967 20.2114L1.57127 20.4969L1.85674 21.0185C1.96143 21.2104 2.1316 21.3577 2.33614 21.434C2.54091 21.5104 2.76596 21.5104 2.97073 21.434C3.17526 21.3577 3.34544 21.2104 3.45013 21.0185L3.73491 20.4969L4.25651 20.2114C4.44813 20.1068 4.59525 19.9363 4.67157 19.7318C4.74767 19.5273 4.74767 19.3022 4.67157 19.0977C4.59524 18.8932 4.44813 18.723 4.25651 18.6181L3.73491 18.3333L3.44944 17.811C3.34475 17.6196 3.17434 17.4722 2.96981 17.3962C2.76528 17.3198 2.54022 17.3198 2.33569 17.3962C2.13116 17.4722 1.96098 17.6196 1.85606 17.811L1.57059 18.3333L1.04968 18.6213C0.858292 18.7262 0.710944 18.8964 0.634852 19.1009C0.558524 19.3054 0.558524 19.5305 0.634852 19.735C0.71095 19.9396 0.858298 20.11 1.04968 20.2147L1.04967 20.2114ZM1.42162 19.2978L2.10786 18.9226V18.9229C2.13023 18.9104 2.14844 18.8922 2.1609 18.8698L2.53676 18.1829H2.53653C2.56005 18.1404 2.60478 18.1139 2.65344 18.1139C2.7021 18.1139 2.74683 18.1404 2.77036 18.1829L3.14622 18.8698H3.14599C3.15844 18.8922 3.17666 18.9104 3.19903 18.9229L3.88527 19.298V19.2978C3.92816 19.3211 3.95491 19.3661 3.95491 19.4147C3.95491 19.4636 3.92816 19.5083 3.88527 19.5316L3.19903 19.9075C3.17643 19.9195 3.15821 19.9379 3.14599 19.9603L2.77013 20.6465L2.77036 20.6468C2.74707 20.6894 2.7021 20.7162 2.65344 20.7162C2.60479 20.7162 2.55983 20.6894 2.53653 20.6468L2.16067 19.9605L2.1609 19.9603C2.14868 19.9379 2.13046 19.9195 2.10786 19.9075L1.42162 19.5316C1.37873 19.5083 1.35198 19.4636 1.35198 19.4147C1.35198 19.3661 1.37873 19.3211 1.42162 19.2978Z" fill="#101828"/>
<path d="M13.3187 19.0326C13.5369 18.9389 13.6319 18.9092 13.7642 18.968C14.0368 19.0923 14.3499 19.0923 14.6225 18.968C14.7556 18.9085 14.8503 18.9383 15.0687 19.0326H15.0685C15.2294 19.1133 15.4054 19.1599 15.585 19.1693C15.6581 19.1693 15.7307 19.1589 15.8008 19.1384C16.0031 19.0766 16.1183 18.864 16.0598 18.6606C16.0014 18.4575 15.7907 18.3387 15.5864 18.3938C15.5124 18.3793 15.4406 18.3544 15.3733 18.3203C15.1286 18.2156 14.7593 18.0569 14.3034 18.2622C14.2335 18.2954 14.1521 18.2954 14.082 18.2622C13.63 18.0569 13.2569 18.2156 13.0128 18.3203C12.9454 18.3537 12.8739 18.3788 12.8004 18.3945C12.6998 18.359 12.5889 18.3666 12.4941 18.4153C12.3991 18.4642 12.3286 18.5499 12.2991 18.6525C12.2695 18.7549 12.2836 18.8652 12.3378 18.9569C12.3922 19.0489 12.4819 19.1142 12.5859 19.1377C12.876 19.2223 13.1214 19.117 13.3187 19.0326L13.3187 19.0326Z" fill="#101828"/>
<path d="M14.7066 19.6158H13.6781C13.4641 19.6158 13.2907 19.7892 13.2907 20.0032C13.2907 20.2172 13.4641 20.3906 13.6781 20.3906H14.7054C14.9194 20.3906 15.0928 20.2172 15.0928 20.0032C15.0928 19.7892 14.9194 19.6158 14.7054 19.6158H14.7066Z" fill="#101828"/>
<path d="M21.9427 24.967L21.8504 24.9297C21.8228 24.5114 21.7801 24.0949 21.7213 23.6882V23.6879C21.6745 23.3681 21.4746 23.0914 21.1854 22.9468L19.7475 22.2223C19.4689 22.0814 19.1396 22.0814 18.861 22.2223C18.5855 22.357 18.3909 22.6148 18.3367 22.9164C18.3212 23.0017 18.3019 23.0907 18.2804 23.183V23.1832C18.1872 23.0727 18.101 22.9567 18.0221 22.8357C17.7265 22.3837 17.5663 21.8504 17.4805 21.4275V21.4277C18.1337 20.8639 18.751 20.2603 19.3291 19.6199C19.8669 19.0342 20.2635 18.3286 20.5598 17.5627C23.4168 16.8744 23.566 13.9768 23.659 12.1805H23.6587C23.6816 11.7283 23.5789 11.2784 23.3624 10.8806C23.1461 10.4828 22.8242 10.1524 22.432 9.92571C22.3236 8.82235 22.0008 7.54137 21.4911 6.56186H21.4914C21.6502 6.51943 21.783 6.41013 21.8555 6.26232C21.9415 6.08892 21.9313 5.88323 21.8282 5.71928C21.02 4.41645 19.5272 3.29763 17.7767 2.65838C17.8411 2.50872 17.8381 2.339 17.7689 2.19166C17.6997 2.04454 17.5708 1.93386 17.4147 1.88797C17.0158 1.76714 16.6109 1.66729 16.2013 1.58912C16.2006 1.44939 16.1554 1.3138 16.0722 1.20173C15.9032 0.98682 15.6537 0.849849 15.3813 0.822635C14.5936 0.725788 13.7969 0.725788 13.0092 0.822635C12.7369 0.850076 12.4874 0.986814 12.3177 1.20173C12.2107 1.34493 12.1675 1.52594 12.1989 1.70212C10.6945 2.14185 9.62341 3.02708 9.09974 4.03038C9.09167 4.04814 9.07669 4.06197 9.05847 4.06912C7.71898 4.48211 6.60589 5.4236 5.97685 6.67619C5.8823 6.86181 5.90421 7.08526 6.03288 7.24898C6.15463 7.4067 6.35271 7.48533 6.54941 7.45351C6.28537 8.24837 6.09952 9.06696 5.99483 9.89801C5.59245 10.1215 5.26084 10.4533 5.03764 10.8557C4.81443 11.2581 4.70858 11.7151 4.73187 12.1747C4.82411 13.9721 4.9733 16.8718 7.83492 17.5581C8.13123 18.3218 8.5276 19.0283 9.06561 19.6138C9.64209 20.2542 10.258 20.858 10.9096 21.4216C10.7985 21.9697 10.6087 22.4643 10.3673 22.8342V22.8345C10.288 22.9548 10.2017 23.0708 10.109 23.1811C10.0871 23.0888 10.0677 22.9996 10.0523 22.9145H10.0521C9.99811 22.6129 9.80326 22.3551 9.52794 22.2204C9.24915 22.0793 8.92009 22.0793 8.64128 22.2204L7.20079 22.9468C6.91278 23.0909 6.71309 23.3667 6.66628 23.6854C6.60748 24.0921 6.56482 24.5086 6.53715 24.9269L6.44537 24.9642C3.69627 26.1202 1.50608 28.6816 0.278345 32.1797C0.210093 32.3766 0.241219 32.594 0.361591 32.764C0.481962 32.9339 0.677044 33.0354 0.885266 33.0365H27.502C27.7102 33.0352 27.9048 32.9337 28.0252 32.7637C28.1454 32.5938 28.1763 32.3763 28.1082 32.1797C26.8808 28.6816 24.6902 26.1201 21.943 24.9672L21.9427 24.967ZM16.7555 2.88154C16.7919 3.05333 16.9188 3.19191 17.0866 3.24311C18.7248 3.74879 20.1517 4.70508 20.9742 5.83683C20.8111 5.86174 20.6705 5.96505 20.5978 6.11308C20.5208 6.2685 20.53 6.45252 20.6223 6.5994C21.1155 7.39102 21.4616 8.57053 21.6115 9.62359C21.2453 9.55902 20.8457 9.50484 20.4261 9.45434C20.151 8.60924 19.648 7.81692 18.9166 7.08546H18.9164C18.8057 6.975 18.6394 6.9418 18.4949 7.00152C18.3503 7.06124 18.2557 7.20213 18.2553 7.35871C18.2553 7.53926 18.2336 7.71913 18.1907 7.8946C17.7468 7.47746 17.2721 7.0949 16.7703 6.74969C16.6619 6.04733 16.5296 5.45837 16.4106 4.92384C16.1975 3.97219 16.0322 3.23477 16.1013 2.35668C16.3352 2.40326 16.5752 2.4586 16.8226 2.52524C16.7546 2.63062 16.7304 2.7586 16.7555 2.88151L16.7555 2.88154ZM16.984 9.17548C16.9704 8.67694 16.9414 8.22177 16.9015 7.80205V7.80228C17.3089 8.1235 17.6936 8.47259 18.0526 8.84708C18.134 8.93194 18.2497 8.97507 18.3669 8.96469C18.484 8.95408 18.5901 8.8909 18.6549 8.79266C18.7623 8.61949 18.8454 8.43225 18.9016 8.23624C19.1705 8.58029 19.3926 8.95844 19.5621 9.36085C18.7144 9.27899 17.8209 9.21834 16.984 9.17569L16.984 9.17548ZM13.105 1.58993C13.8293 1.50069 14.5621 1.50069 15.2866 1.58993C15.3321 1.59523 15.3759 1.60976 15.4158 1.63236C15.1723 2.94445 15.3853 3.89214 15.6533 5.09237C15.8786 6.09957 16.1523 7.32495 16.2071 9.13993C15.4201 9.10903 14.7171 9.09474 14.1927 9.09474C13.6683 9.09474 12.966 9.10903 12.1828 9.13993C12.237 7.32495 12.5108 6.09957 12.7367 5.09237C13.0047 3.89468 13.2177 2.94416 12.9742 1.63236H12.9745C13.0146 1.60976 13.0591 1.59523 13.105 1.58993H13.105ZM11.4069 9.17489C10.5675 9.21755 9.67149 9.27889 8.81783 9.36144C8.96426 8.94153 9.17617 8.54722 9.44599 8.1935C9.72431 7.84024 10.1878 7.40443 10.818 7.3366C10.9324 7.32415 11.0352 7.26143 11.0989 7.1655C11.2474 6.9393 11.4335 6.7403 11.6491 6.5768C11.5091 7.43624 11.4281 8.30442 11.4069 9.1749L11.4069 9.17489ZM9.27946 4.80886C9.49737 4.74268 9.67907 4.59095 9.78354 4.38872C10.116 3.7546 10.9374 2.92055 12.2977 2.47828C12.3429 3.30337 12.184 4.01635 11.9813 4.92349C11.9336 5.13517 11.8845 5.35608 11.8347 5.58989L11.8349 5.58966C11.3232 5.79789 10.8798 6.14516 10.5551 6.59226C9.91335 6.7124 9.32256 7.09725 8.83697 7.71433H8.8372C8.44151 8.23408 8.14771 8.82371 7.97133 9.45251C7.56272 9.50163 7.1721 9.55582 6.81378 9.61646C6.92746 8.89332 7.1509 7.96936 7.45946 7.22291L7.45923 7.22314C7.52841 7.06195 7.50143 6.87564 7.38959 6.74074C7.2766 6.60584 7.09882 6.54427 6.92656 6.58001C7.48183 5.73468 8.31357 5.10859 9.2795 4.80883L9.27946 4.80886ZM6.90598 10.3866C9.10124 10.0103 12.5419 9.87011 14.1934 9.87011C15.8449 9.87011 19.2837 10.0108 21.4803 10.3866L21.48 10.3869C21.9002 10.4583 22.2774 10.6864 22.5364 11.0247C16.9861 10.5388 11.4037 10.5375 5.85351 11.0201C6.11223 10.6843 6.48786 10.4581 6.90592 10.3869L6.90598 10.3866ZM5.50421 12.1345C5.49914 12.0323 5.50329 11.93 5.51644 11.8285C11.2891 11.3 17.0978 11.3 22.8705 11.8285C22.8837 11.929 22.8876 12.0307 22.8821 12.132C22.758 14.5513 22.4114 16.7374 19.5756 16.9176C18.4662 16.991 17.3525 16.8734 16.2827 16.5701C14.9172 16.1811 13.4702 16.1811 12.1047 16.5701C11.0352 16.8734 9.92145 16.991 8.81183 16.9176C5.97483 16.7401 5.62873 14.5531 5.50423 12.1345H5.50421ZM9.63642 19.0896C9.26379 18.6736 8.95892 18.2016 8.73253 17.6911H8.76228C8.99287 17.7054 9.22323 17.713 9.45177 17.713C10.4207 17.7144 11.3853 17.5806 12.3173 17.3152C13.5438 16.9654 14.8439 16.9654 16.0704 17.3152C17.2252 17.6429 18.4276 17.7699 19.6255 17.6911H19.6596C19.4334 18.2016 19.1283 18.6737 18.7557 19.0896C17.6911 20.2486 17.03 20.8213 15.9517 21.6683C15.4509 22.0622 14.8322 22.2764 14.1951 22.2764C13.558 22.2764 12.9395 22.0622 12.4387 21.6683C11.3611 20.8211 10.7 20.2486 9.63513 19.0896L9.63642 19.0896ZM11.0163 23.2566C11.2676 22.8593 11.456 22.4254 11.5748 21.9704C11.6988 22.0698 11.8273 22.1712 11.9622 22.2778C12.5991 22.7793 13.3861 23.0519 14.1966 23.0519C15.0074 23.0519 15.7944 22.7793 16.4313 22.2778C16.5655 22.1726 16.6895 22.0719 16.8147 21.9736C16.9342 22.4274 17.1226 22.8603 17.3732 23.2566C17.5579 23.5416 17.777 23.8029 18.0254 24.0347C17.7083 24.9213 17.317 25.7796 16.8556 26.6005C15.0768 27.6368 13.3181 27.6335 11.5308 26.5954C11.0705 25.7761 10.6799 24.9194 10.3635 24.0347C10.6119 23.8031 10.8305 23.5416 11.015 23.2566L11.0163 23.2566ZM10.7167 32.2613H1.07158C2.19826 29.1672 4.11519 26.8855 6.50154 25.7879C6.48402 26.6245 6.53682 27.4613 6.65904 28.2891C6.83267 29.4043 7.22076 30.7646 8.08595 30.9112C8.13091 30.9186 8.17611 30.9223 8.22154 30.9223C8.79755 30.9223 9.79443 30.4115 11.3415 29.4907C11.2034 30.088 10.7726 32.0171 10.7152 32.2613L10.7167 32.2613ZM9.49001 29.6528C8.49639 30.1693 8.24203 30.1518 8.2167 30.1481C8.01724 30.1145 7.64207 29.5599 7.4258 28.171C7.22426 26.8739 7.22703 25.2391 7.4341 23.7986C7.44517 23.7303 7.48875 23.6718 7.55101 23.6418L8.99085 22.9147C9.05172 22.8841 9.12367 22.8841 9.18454 22.9147C9.24035 22.9415 9.27978 22.9934 9.29108 23.0543C9.58301 24.6465 10.6972 26.8791 11.5979 28.1725V28.1722C11.6249 28.2098 11.639 28.2552 11.6373 28.3014C11.629 28.3304 11.6205 28.3613 11.6115 28.3943V28.3945C11.594 28.4275 11.5679 28.4549 11.5361 28.4745L11.3535 28.5843C10.8323 28.8954 10.1207 29.3247 9.48939 29.6529L9.49001 29.6528ZM11.5102 32.2613C11.5536 32.0676 12.1843 29.2558 12.3457 28.6456C12.3632 28.5981 12.377 28.5492 12.3869 28.4997C12.4367 28.2626 12.3978 28.0154 12.2779 27.8049C13.509 28.2723 14.8684 28.2741 16.1009 27.8102C15.9837 28.0198 15.9468 28.2649 15.9969 28.4996C16.0079 28.5492 16.0229 28.5977 16.0414 28.6449C16.2028 29.2564 16.8337 32.0669 16.8768 32.2606L11.5102 32.2613ZM16.8531 28.4727V28.4724C16.821 28.4533 16.7947 28.4259 16.7767 28.3931C16.7678 28.3594 16.7592 28.3285 16.7509 28.2995C16.7502 28.2534 16.7638 28.2082 16.7904 28.1704C17.6911 26.879 18.8062 24.6444 19.0979 23.0521C19.1085 22.991 19.1484 22.9391 19.2044 22.9129C19.2344 22.8979 19.2674 22.89 19.3006 22.8903C19.3343 22.89 19.3672 22.8981 19.397 22.9133L20.8375 23.6404H20.8372C20.8995 23.671 20.9428 23.7296 20.9541 23.7979C21.1608 25.2383 21.164 26.873 20.962 28.1703C20.7464 29.5592 20.3712 30.1138 20.1717 30.1474C20.1459 30.1513 19.8923 30.1686 18.8984 29.6521C18.2671 29.3242 17.5547 28.8948 17.035 28.5817L16.8531 28.4727ZM17.6717 32.2613C17.6168 32.0178 17.1842 30.0887 17.0454 29.4914C18.595 30.4122 19.59 30.9229 20.1658 30.9229V30.9227C20.2109 30.9229 20.2561 30.9193 20.3009 30.9119C21.1679 30.7652 21.5553 29.4036 21.7271 28.2898C21.85 27.4618 21.9028 26.6247 21.8846 25.7879C24.2735 26.8855 26.1886 29.1665 27.3145 32.2607L17.6717 32.2613Z" fill="#101828"/>
</svg>
